# AST/ASF file generated using VICON BodyLanguage
# -----------------------------------------------
:version 1.10
:name VICON
:units
  mass 1.0
  length 0.45
  angle deg
:documentation
   .ast/.asf automatically generated from VICON data using
   VICON BodyBuilder and BodyLanguage model FoxedUp or BRILLIANT.MOD
:root
   order TX TY TZ RX RY RZ
   axis XYZ
   position 0 0 0  
   orientation 0 0 0 
:bonedata
  begin
     id 1 
     name lhipjoint
     direction 0.610259 -0.730986 0.305356 
     length 2.50941 
     axis 0 0 0  XYZ
  end
  begin
     id 2 
     name lfemur
     direction 0.34202 -0.939693 0  
     length 7.48822  
     axis 0 0 20  XYZ
    dof rx ry rz
    limits (-160.0 20.0)
           (-70.0 70.0)
           (-60.0 70.0)
  end
  begin
     id 3 
     name ltibia
     direction 0.34202 -0.939693 0   
     length 7.60141   
     axis 0 0 20   XYZ
    dof rx
    limits (-10.0 170.0)
  end
  begin
     id 4 
     name lfoot
     direction 0.0673488 -0.185039 0.980421   
     length 2.04049   
     axis -90 7.62852e-016 20   XYZ
    dof rx rz
    limits (-45.0 90.0)
           (-70.0 20.0)
  end
  begin
     id 5 
     name ltoes
     direction 1.5356e-011 -4.21729e-011 1   
     length 1.02897   
     axis -90 7.62852e-016 20   XYZ
    dof rx
    limits (-90.0 20.0)
  end
  begin
     id 6 
     name rhipjoint
     direction -0.57612 -0.754205 0.315056   
     length 2.43216  
     axis 0 0 0  XYZ 
  end
  begin
     id 7 
     name rfemur
     direction -0.34202 -0.939693 0   
     length 7.42799   
     axis 0 0 -20   XYZ
    dof rx ry rz
    limits (-160.0 20.0)
           (-70.0 70.0)
           (-70.0 60.0)
  end
  begin
     id 8 
     name rtibia
     direction -0.34202 -0.939693 0   
     length 7.69484   
     axis 0 0 -20   XYZ
    dof rx
    limits (-10.0 170.0)
 end
 begin
     id 9 
     name rfoot
     direction -0.111837 -0.30727 0.945028   
     length 2.15769  
     axis -90 -7.62852e-016 -20   XYZ
    dof rx rz
    limits (-45.0 90.0)
           (-20.0 70.0)
  end
  begin
     id 10 
     name rtoes
     direction -1.53539e-011 -4.21878e-011 1   
     length 1.07391   
     axis -90 -7.62852e-016 -20   XYZ
    dof rx
    limits (-90.0 20.0)
  end
  begin
     id 11 
     name lowerback
     direction 0.00552624 0.990109 -0.140195   
     length 2.12403   
     axis 0 0 0   XYZ
    dof rx ry rz
    limits (-20.0 45.0)
           (-30.0 30.0)
           (-30.0 30.0)
  end
  begin
     id 12 
     name upperback
     direction 0.00361898 0.999976 -0.00584723   
     length 2.13232   
     axis 0 0 0   XYZ
    dof rx ry rz
    limits (-20.0 45.0)
           (-30.0 30.0)
           (-30.0 30.0)
  end
  begin
     id 13 
     name thorax
     direction -0.000331275 0.998253 0.0590847   
     length 2.17688   
     axis 0 0 0   XYZ
    dof rx ry rz
    limits (-20.0 45.0)
           (-30.0 30.0)
           (-30.0 30.0)
  end
  begin
     id 14 
     name lowerneck
     direction -0.0561561 0.979832 0.19177   
     length 1.64159   
     axis 0 0 0   XYZ
    dof rx ry rz
    limits (-20.0 45.0)
           (-30.0 30.0)
           (-30.0 30.0)
  end
  begin
     id 15 
     name upperneck
     direction 0.0827153 0.979385 -0.184293   
     length 1.68939   
     axis 0 0 0   XYZ
    dof rx ry rz
    limits (-20.0 45.0)
           (-30.0 30.0)
           (-30.0 30.0)
  end
  begin
     id 16
     name head
     direction 0.0278583 0.995936 -0.0856488  
     length 1.70207  
     axis 0 0 0   XYZ
    dof rx ry rz
    limits (-20.0 45.0)
           (-30.0 30.0)
           (-30.0 30.0)
  end
  begin
     id 17 
     name lclavicle
     direction 0.950993 0.301131 -0.0702275  
     length 3.41652  
     axis 0 0 0   XYZ
    dof ry rz
    limits (-20.0 10.0)
           (0.0 20.0)
  end
  begin
     id 18 
     name lhumerus
     direction 1 -4.48981e-011 -3.9662e-029   
     length 5.32955   
     axis 180 -30 -90   XYZ
    dof rx ry rz
    limits (-60.0 90.0)
           (-90.0 90.0)
           (-90.0 90.0)
  end
  begin
     id 19
     name lradius
     direction 1 -4.48925e-011 -9.0549e-027   
     length 3.69232   
     axis 180 -30 -90   XYZ
    dof rx
    limits (-10.0 170.0)
  end
  begin
     id 20
     name lwrist
     direction 1 -4.49007e-011 -1.49005e-026   
     length 1.84616   
     axis 9.0955e-015 90 90   XYZ
    dof ry
    limits (-180.0 0.0)
 end
  begin
     id 21 
     name lhand
     direction 1 -4.49016e-011 -2.98023e-026   
     length 0.536598   
     axis 1.90115e-014 90 90   XYZ
    dof rx rz
    limits (-90.0 90.0)
           (-45.0 45.0)
  end
  begin
     id 22 
     name lfingers
     direction 1 -4.48924e-011 -5.9578e-026   
     length 0.432619   
     axis 3.80223e-014 90 90   XYZ
    dof rx
    limits (0.0 90.0)
  end
  begin
     id 23
     name lthumb
     direction 0.707107 -6.34947e-011 0.707107   
     length 0.621157   
     axis -90 45 -3.84942e-014   XYZ
    dof rx rz
    limits (-45.0 45.0)
           (-45.0 45.0)
  end
  begin
     id 24 
     name rclavicle
     direction -0.955495 0.276497 -0.102848   
     length 3.36357  
     axis 0 0 0   XYZ 
    dof ry rz
    limits (-10.0 20.0)
           (-20.0 0.0)
  end
  begin
     id 25 
     name rhumerus
     direction -1 -4.48961e-011 3.30983e-027  
     length 5.23431   
     axis 180 30 90   XYZ
    dof rx ry rz
    limits (-90.0 60.0)
           (-90.0 90.0)
           (-90.0 90.0)
  end
  begin
     id 26 
     name rradius
     direction -1 -4.48965e-011 -6.63263e-027   
     length 3.55301   
     axis 180 30 90   XYZ
    dof rx
    limits (-10.0 170.0)
  end
  begin
     id 27 
     name rwrist
     direction -1 -4.48942e-011 -1.48958e-026   
     length 1.77651   
     axis 9.0955e-015 -90 -90   XYZ
    dof ry
    limits (-180.0 0.0)
  end
  begin
     id 28
     name rhand
     direction -1 -4.48977e-011 -2.97966e-026   
     length 0.772522   
     axis 1.90115e-014 -90 -90   XYZ
    dof rx rz
    limits (-90.0 90.0)
           (-45.0 45.0)
  end
  begin
     id 29
     name rfingers
     direction -1 -4.49135e-011 -5.96389e-026   
     length 0.622827   
     axis 3.80223e-014 -90 -90   XYZ
    dof rx
    limits (0.0 90.0)
  end
  begin
     id 30
     name rthumb
     direction -0.707107 -6.34969e-011 0.707107   
     length 0.894259   
     axis -90 -45 3.84942e-014   XYZ
    dof rx rz
    limits (-45.0 45.0)
           (-45.0 45.0)
  end
:hierarchy
  begin
    root lhipjoint rhipjoint lowerback
    lhipjoint lfemur
    lfemur ltibia
    ltibia lfoot
    lfoot ltoes
    rhipjoint rfemur
    rfemur rtibia
    rtibia rfoot
    rfoot rtoes
    lowerback upperback
    upperback thorax
    thorax lowerneck lclavicle rclavicle
    lowerneck upperneck
    upperneck head
    lclavicle lhumerus
    lhumerus lradius
    lradius lwrist
    lwrist lhand lthumb
    lhand lfingers
    rclavicle rhumerus
    rhumerus rradius
    rradius rwrist
    rwrist rhand rthumb
    rhand rfingers
  end

#!OML:ASF F:\VICON\USERDATA\INSTALL\rory3\rory3.ASF
:FULLY-SPECIFIED
:DEGREES
64
root -12.8965 17.6648 -2.61825 -1.97278 -7.25375 -1.0316
lowerback 8.70942 2.87037 1.04647
upperback 0.556779 3.90861 -0.246125
thorax -4.21066 1.91335 -1.31531
lowerneck -19.7087 -6.06125 -12.8044
upperneck 28.3595 -7.65621 10.1236
head 13.8653 -3.40627 4.86418
rclavicle 2.85629e-014 -4.96962e-015
rhumerus -29.4164 -13.2928 -83.0155
rradius 33.6532
rwrist 4.72724
rhand -16.5075 8.72743
rfingers 7.12502
rthumb 9.71054 -21.0287
lclavicle 2.85629e-014 -4.96962e-015
lhumerus -39.6448 13.7398 78.1308
lradius 24.0157
lwrist -14.9513
lhand -18.1629 23.3829
lfingers 7.12502
lthumb 8.11312 53.2071
rfemur 12.6057 2.23328 23.7943
rtibia 35.0004
rfoot 3.84197 4.96787
rtoes 8.46185
lfemur -19.5498 0.268087 -20.7237
ltibia 19.4168
lfoot 2.83712 -2.87085
ltoes -5.40134
65
root -12.8804 17.6792 -2.43819 -2.20798 -7.25557 -0.888186
lowerback 8.72038 2.84976 1.01528
upperback 0.676167 3.87517 -0.292069
thorax -4.09227 1.8989 -1.33774
lowerneck -19.8999 -6.06905 -12.8471
upperneck 28.4199 -7.62122 10.0915
head 13.9278 -3.39529 4.86583
rclavicle -1.3418e-014 6.16232e-015
rhumerus -29.6413 -13.7997 -82.9497
rradius 33.3305
rwrist 4.87627
rhand -16.1973 8.87758
rfingers 7.12502
rthumb 10.0098 -20.8644
lclavicle -1.3418e-014 6.16232e-015
lhumerus -39.5681 13.8636 78.1405
lradius 24.3024
lwrist -14.4811
lhand -18.3493 23.5699
lfingers 7.12502
lthumb 7.93321 53.4011
rfemur 11.8831 1.75502 23.3072
rtibia 37.0232
rfoot 6.08865 4.92844
rtoes 7.59929
lfemur -18.8815 0.576822 -21.056
ltibia 19.8604
lfoot 2.42125 -3.21079
ltoes -4.27134
66
root -12.8648 17.698 -2.26351 -2.44473 -7.32022 -0.60435
lowerback 8.88897 2.88883 0.827225
upperback 0.658514 3.90523 -0.398468
thorax -4.20904 1.91467 -1.35706
lowerneck -19.8519 -6.08674 -12.7744
upperneck 28.4837 -7.65737 10.0073
head 13.9424 -3.4159 4.81412
rclavicle -7.33018e-015 3.57812e-015
rhumerus -30.0309 -14.2184 -82.8953
rradius 32.9582
rwrist 4.99661
rhand -15.1171 11.5367
rfingers 7.12502
rthumb 11.0518 -18.1523
lclavicle -7.33018e-015 3.57812e-015
lhumerus -39.595 13.4905 78.2854
lradius 24.6119
lwrist -13.9226
lhand -17.8736 24.0666
lfingers 7.12502
lthumb 8.39236 53.8798
rfemur 11.0294 1.35466 22.6778
rtibia 39.1976
rfoot 8.08864 5.14415
rtoes 7.44437
lfemur -18.0967 0.855325 -21.5287
ltibia 20.0319
lfoot 1.91185 -3.87229
ltoes -3.29812
67
root -12.8471 17.7284 -2.09041 -2.61536 -7.42245 -0.314424
lowerback 8.99989 2.94533 0.656355
upperback 0.604319 3.95922 -0.505063
thorax -4.33001 1.94199 -1.38731
lowerneck -19.6757 -6.05543 -12.7057
upperneck 28.5335 -7.65097 9.97047
head 13.9193 -3.41574 4.79171
rclavicle -4.93669e-014 1.21259e-014
rhumerus -30.5176 -14.5811 -82.738
rradius 32.444
rwrist 5.09636
rhand -15.8161 9.12434
rfingers 7.12502
rthumb 10.3775 -20.5996
lclavicle -4.93669e-014 1.21259e-014
lhumerus -39.6636 12.9758 78.4908
lradius 24.8727
lwrist -13.5684
lhand -17.2037 23.9629
lfingers 7.12502
lthumb 9.03878 53.7493
rfemur 9.9481 1.00813 22.0386
rtibia 41.5456
rfoot 10.2752 5.36304
rtoes 9.40765
lfemur -17.2247 1.09336 -22.0008
ltibia 19.9039
lfoot 1.6136 -4.38615
ltoes -3.5429
68
root -12.8308 17.7598 -1.91693 -2.82732 -7.51889 0.187676
lowerback 9.01364 2.99155 0.260927
upperback 0.650167 3.97358 -0.656494
thorax -4.30563 1.95557 -1.32464
lowerneck -19.7457 -6.04288 -12.6511
upperneck 28.6611 -7.61623 9.86074
head 13.976 -3.40821 4.74776
rclavicle -2.41151e-014 5.1684e-015
rhumerus -30.8989 -14.7408 -82.6672
rradius 32.0776
rwrist 5.13756
rhand -15.9762 8.51394
rfingers 7.12502
rthumb 10.2231 -21.2176
lclavicle -2.41151e-014 5.1684e-015
lhumerus -39.5963 12.497 78.7834
lradius 25.1172
lwrist -13.0735
lhand -17.2644 23.731
lfingers 7.12502
lthumb 8.98017 53.5198
rfemur 8.80088 0.806559 21.2151
rtibia 44.0167
rfoot 12.5616 5.10683
rtoes 12.8168
lfemur -16.2017 1.32038 -22.7073
ltibia 19.5297
lfoot 1.41163 -4.60458
ltoes -5.61335
69
root -12.818 17.779 -1.74646 -3.08225 -7.61984 0.735148
lowerback 9.05992 3.02989 -0.192508
upperback 0.692988 3.9705 -0.827659
thorax -4.30557 1.96095 -1.25007
lowerneck -19.7298 -5.99177 -12.6074
upperneck 28.7319 -7.52555 9.74704
head 13.9816 -3.38011 4.71303
rclavicle 1.15544e-014 -1.59028e-015
rhumerus -31.1994 -14.6008 -82.7845
rradius 31.7658
rwrist 4.9452
rhand -15.8715 8.54666
rfingers 7.12502
rthumb 10.3242 -21.1799
lclavicle 1.15544e-014 -1.59028e-015
lhumerus -39.5698 11.9651 79.0656
lradius 25.401
lwrist -12.4129
lhand -17.2931 23.822
lfingers 7.12502
lthumb 8.9525 53.6121
rfemur 7.66951 0.705154 20.3965
rtibia 46.5208
rfoot 14.6901 4.45962
rtoes 16.7427
lfemur -15.0929 1.51836 -23.4413
ltibia 18.9667
lfoot 1.3555 -4.57583
ltoes -5.86971
70
root -12.8078 17.7954 -1.58296 -3.33403 -7.71994 1.13523
lowerback 9.21963 3.0531 -0.544933
upperback 0.699588 3.95888 -0.925381
thorax -4.40506 1.95993 -1.16307
lowerneck -19.6863 -5.92759 -12.6593
upperneck 28.8062 -7.42054 9.7373
head 13.9908 -3.34385 4.74157
rclavicle -6.61953e-014 2.06736e-014
rhumerus -31.4096 -14.6081 -82.7967
rradius 31.2115
rwrist 5.27138
rhand -16.106 8.84984
rfingers 7.12502
rthumb 10.0979 -20.8879
lclavicle -6.61953e-014 2.06736e-014
lhumerus -39.5954 11.2598 79.4484
lradius 25.9049
lwrist -11.6575
lhand -17.0513 24.323
lfingers 7.12502
lthumb 9.18585 54.103
rfemur 6.52449 0.520806 19.7549
rtibia 48.9491
rfoot 16.3943 3.97101
rtoes 18.8248
lfemur -13.9604 1.64735 -23.9883
ltibia 18.3224
lfoot 1.32024 -4.48466
ltoes -5.10508
71
root -12.7958 17.8154 -1.42245 -3.53591 -7.74753 1.56469
lowerback 9.28358 3.04549 -0.950694
upperback 0.772268 3.90252 -1.0017
thorax -4.38755 1.9388 -1.01008
lowerneck -19.7787 -5.84667 -12.7135
upperneck 28.8273 -7.28237 9.77197
head 14.0035 -3.28342 4.79218
rclavicle 1.63811e-014 -6.75868e-015
rhumerus -31.6051 -14.5502 -82.7427
rradius 30.7438
rwrist 5.93974
rhand -16.4405 8.9076
rfingers 7.12502
rthumb 9.77523 -20.8455
lclavicle 1.63811e-014 -6.75868e-015
lhumerus -39.4219 10.7488 79.839
lradius 26.3436
lwrist -11.2686
lhand -17.0965 24.6342
lfingers 7.12502
lthumb 9.1422 54.4161
rfemur 5.29584 0.232258 19.0692
rtibia 51.2919
rfoot 17.6257 3.60082
rtoes 19.6977
lfemur -12.9085 1.53491 -24.5587
ltibia 17.7478
lfoot 1.30766 -4.31563
ltoes -4.19651
72
root -12.7863 17.8405 -1.26431 -3.70695 -7.69802 1.86617
lowerback 9.35139 3.01819 -1.27229
upperback 0.843514 3.83046 -1.0337
thorax -4.37058 1.90849 -0.856191
lowerneck -19.86 -5.79957 -12.7445
upperneck 28.8336 -7.18345 9.74961
head 14.0095 -3.24492 4.80675
rclavicle -8.48562e-015 2.13694e-014
rhumerus -31.7559 -14.3636 -82.7449
rradius 30.3087
rwrist 6.37327
rhand -16.4559 8.96917
rfingers 7.12502
rthumb 9.7603 -20.7847
lclavicle -8.48562e-015 2.13694e-014
lhumerus -39.2238 10.4629 80.1101
lradius 26.7257
lwrist -11.0965
lhand -17.07 24.5004
lfingers 7.12502
lthumb 9.16781 54.2811
rfemur 4.0844 -0.0662473 18.5829
rtibia 53.5125
rfoot 18.2762 2.84399
rtoes 20.2757
lfemur -11.8894 1.41891 -24.9952
ltibia 17.2161
lfoot 1.31204 -4.24882
ltoes -3.17907
73
root -12.7773 17.8532 -1.10743 -3.90679 -7.64914 2.22548
lowerback 9.48243 2.9913 -1.64629
upperback 0.844632 3.74911 -1.09627
thorax -4.4626 1.87409 -0.709759
lowerneck -19.8339 -5.75923 -12.6862
upperneck 28.9026 -7.1073 9.61184
head 14.013 -3.22508 4.75639
rclavicle -3.81418e-015 -5.96354e-016
rhumerus -31.8059 -14.2871 -82.7279
rradius 29.6744
rwrist 6.94396
rhand -16.2668 9.32896
rfingers 7.12502
rthumb 9.94275 -20.4162
lclavicle -3.81418e-015 -5.96354e-016
lhumerus -39.178 10.3455 80.2004
lradius 27.0748
lwrist -11.0899
lhand -17.102 24.0398
lfingers 7.12502
lthumb 9.13694 53.8219
rfemur 2.92029 -0.440388 17.999
rtibia 55.6785
rfoot 17.9966 1.75954
rtoes 19.3542
lfemur -10.876 1.33055 -25.5111
ltibia 16.7234
lfoot 1.11868 -4.07482
ltoes -2.56892
74
root -12.7686 17.8625 -0.951536 -4.12224 -7.53159 2.59252
lowerback 9.67503 2.96694 -2.0258
upperback 0.768183 3.66524 -1.1762
thorax -4.66841 1.83905 -0.583961
lowerneck -19.6211 -5.70858 -12.6302
upperneck 29.0035 -7.05248 9.50388
head 13.9947 -3.21611 4.7176
rclavicle -1.87417e-014 -5.96354e-016
rhumerus -32.0438 -14.4514 -82.6219
rradius 29.0473
rwrist 7.88649
rhand -16.5751 9.44372
rfingers 7.12502
rthumb 9.64533 -20.3155
lclavicle -1.87417e-014 -5.96354e-016
lhumerus -39.2005 10.0913 80.2992
lradius 27.3699
lwrist -11.0046
lhand -17.3322 24.1219
lfingers 7.12502
lthumb 8.9148 53.9135
rfemur 1.80317 -1.01814 17.3539
rtibia 57.7338
rfoot 17.1409 0.472412
rtoes 17.7801
lfemur -9.89439 1.31491 -26.0592
ltibia 16.2896
lfoot 0.714913 -3.98973
ltoes -1.61402
75
root -12.7606 17.8715 -0.800763 -4.28594 -7.36165 2.83278
lowerback 9.78421 2.90801 -2.28002
upperback 0.781878 3.55424 -1.2049
thorax -4.7279 1.78879 -0.462412
lowerneck -19.4947 -5.6442 -12.5723
upperneck 28.9576 -6.95698 9.40289
head 13.9259 -3.1841 4.68226
rclavicle 4.52856e-015 -1.68967e-015
rhumerus -32.2281 -14.5347 -82.524
rradius 28.6647
rwrist 8.83056
rhand -16.4665 9.40539
rfingers 7.12502
rthumb 9.75008 -20.3489
lclavicle 4.52856e-015 -1.68967e-015
lhumerus -39.0135 9.94033 80.435
lradius 27.6445
lwrist -10.8685
lhand -17.3413 24.5623
lfingers 7.12502
lthumb 8.90602 54.3544
rfemur 0.639732 -1.6405 16.8868
rtibia 59.6709
rfoot 16.0574 -0.881473
rtoes 17.4002
lfemur -9.03542 1.29642 -26.4747
ltibia 15.9643
lfoot 0.299442 -4.03901
ltoes -1.00596
76
root -12.7535 17.8819 -0.652427 -4.39009 -7.18049 2.94693
lowerback 9.74391 2.8023 -2.43107
upperback 0.900448 3.40272 -1.16775
thorax -4.59068 1.71624 -0.312155
lowerneck -19.6308 -5.60366 -12.5816
upperneck 28.9707 -6.84009 9.2954
head 13.9398 -3.14526 4.66048
rclavicle 2.05897e-014 -4.07509e-015
rhumerus -32.1501 -14.4847 -82.4762
rradius 28.3354
rwrist 9.6484
rhand -15.848 9.51574
rfingers 7.12502
rthumb 10.3467 -20.2097
lclavicle 2.05897e-014 -4.07509e-015
lhumerus -38.7291 9.73353 80.6705
lradius 28.085
lwrist -10.402
lhand -17.0509 24.7215
lfingers 7.12502
lthumb 9.1862 54.5014
rfemur -0.569917 -2.29335 16.608
rtibia 61.4249
rfoot 14.7304 -2.04774
rtoes 16.7103
lfemur -8.23904 1.29468 -26.7277
ltibia 15.6344
lfoot 0.0212452 -4.14104
ltoes -1.2817
